<svg width="20" height="17" viewBox="0 0 20 17" fill="none" xmlns="http://www.w3.org/2000/svg">
<path fill-rule="evenodd" clip-rule="evenodd" d="M10 0C10.855 0 11.732 0.0222066 12.582 0.0585446L13.586 0.106995L14.547 0.16453L15.447 0.226103L16.269 0.290704C17.1612 0.359232 18.0008 0.743347 18.64 1.37539C19.2791 2.00744 19.6768 2.84687 19.763 3.74584L19.803 4.17483L19.878 5.09337C19.948 6.04522 20 7.08287 20 8.0751C20 9.06733 19.948 10.105 19.878 11.0568L19.803 11.9754L19.763 12.4044C19.6768 13.3035 19.2789 14.143 18.6396 14.7751C18.0002 15.4072 17.1604 15.7912 16.268 15.8595L15.448 15.9231L14.548 15.9857L13.586 16.0432L12.582 16.0917C11.7218 16.1293 10.861 16.1488 10 16.1502C9.13902 16.1488 8.27817 16.1293 7.418 16.0917L6.414 16.0432L5.453 15.9857L4.553 15.9231L3.731 15.8595C2.83881 15.791 1.9992 15.4068 1.36004 14.7748C0.720888 14.1428 0.323191 13.3033 0.237 12.4044L0.197 11.9754L0.122 11.0568C0.0458327 10.0647 0.00513964 9.07017 0 8.0751C0 7.08287 0.052 6.04522 0.122 5.09337L0.197 4.17483L0.237 3.74584C0.323157 2.84703 0.720712 2.00772 1.35966 1.3757C1.99861 0.743675 2.83799 0.359459 3.73 0.290704L4.551 0.226103L5.451 0.16453L6.413 0.106995L7.417 0.0585446C8.2775 0.0209218 9.13869 0.00140263 10 0ZM8 5.62733V10.5229C8 10.9892 8.5 11.2799 8.9 11.0477L13.1 8.59998C13.1914 8.54688 13.2673 8.4704 13.3201 8.37825C13.3729 8.2861 13.4007 8.18154 13.4007 8.0751C13.4007 7.96866 13.3729 7.86409 13.3201 7.77195C13.2673 7.6798 13.1914 7.60332 13.1 7.55022L8.9 5.10346C8.80876 5.05029 8.70526 5.02231 8.5999 5.02232C8.49455 5.02234 8.39106 5.05036 8.29983 5.10356C8.20861 5.15676 8.13287 5.23327 8.08024 5.32539C8.02761 5.41751 7.99993 5.522 8 5.62834V5.62733Z" fill="#F9F9F9"/>
</svg>
